<svg width="0" height="0" class="hidden">
  <symbol xmlns="http://www.w3.org/2000/svg" viewBox="0 0 62 62" id="scroll-mouse">
    <path d="M30.8843 61.3191C30.6132 61.3191 30.3533 61.2114 30.1616 61.0197C29.97 60.8281 29.8623 60.5681 29.8623 60.2971V46.4663C29.8623 46.1953 29.97 45.9353 30.1616 45.7437C30.3533 45.552 30.6132 45.4443 30.8843 45.4443C31.1553 45.4443 31.4153 45.552 31.6069 45.7437C31.7986 45.9353 31.9063 46.1953 31.9063 46.4663V60.2698C31.9099 60.4063 31.8862 60.5421 31.8364 60.6693C31.7867 60.7965 31.712 60.9124 31.6167 61.0102C31.5215 61.108 31.4076 61.1857 31.2818 61.2387C31.156 61.2918 31.0208 61.3191 30.8843 61.3191Z"></path>
    <path d="M30.884 61.3191C30.6327 61.3195 30.3902 61.2273 30.2026 61.0602L24.0708 55.6914C23.9701 55.6019 23.8881 55.4935 23.8293 55.3723C23.7706 55.2512 23.7362 55.1196 23.7283 54.9852C23.7204 54.8507 23.7391 54.716 23.7832 54.5888C23.8274 54.4616 23.8961 54.3443 23.9856 54.2436C24.0751 54.143 24.1835 54.0609 24.3047 54.0022C24.4259 53.9434 24.5574 53.9091 24.6919 53.9012C24.8263 53.8933 24.961 53.9119 25.0882 53.9561C25.2155 54.0002 25.3327 54.069 25.4334 54.1585L31.5653 59.5272C31.6668 59.6146 31.7501 59.7213 31.8102 59.841C31.8704 59.9607 31.9062 60.0911 31.9157 60.2248C31.9252 60.3584 31.9082 60.4926 31.8656 60.6196C31.823 60.7466 31.7556 60.864 31.6675 60.9648C31.5699 61.0766 31.4494 61.166 31.3142 61.2271C31.179 61.2883 31.0323 61.3196 30.884 61.3191Z"></path>
    <path d="M30.8843 61.3191C30.6755 61.321 30.4711 61.2589 30.2986 61.1411C30.1262 61.0233 29.994 60.8556 29.9197 60.6604C29.8455 60.4652 29.8329 60.252 29.8835 60.0494C29.9342 59.8468 30.0456 59.6646 30.203 59.5272L36.3348 54.1585C36.4355 54.069 36.5528 54.0002 36.68 53.9561C36.8072 53.9119 36.9419 53.8933 37.0764 53.9012C37.2108 53.9091 37.3424 53.9434 37.4636 54.0022C37.5847 54.0609 37.6932 54.143 37.7826 54.2436C37.8721 54.3443 37.9409 54.4616 37.985 54.5888C38.0292 54.716 38.0478 54.8507 38.0399 54.9852C38.032 55.1196 37.9977 55.2512 37.9389 55.3723C37.8802 55.4935 37.7981 55.6019 37.6975 55.6914L31.5656 61.0602C31.3791 61.229 31.1358 61.3214 30.8843 61.3191Z"></path>
    <path d="M34.6519 41.3769H27.1097C24.3805 41.3733 21.7641 40.2875 19.8342 38.3576C17.9043 36.4278 16.8186 33.8114 16.815 31.0822V11.3239C16.8123 9.96963 17.0765 8.62809 17.5925 7.37595C18.1085 6.12381 18.8661 4.98562 19.8222 4.02641C20.7782 3.06721 21.9139 2.30579 23.1643 1.78567C24.4147 1.26554 25.7554 0.996914 27.1097 0.995126H34.6519C36.0053 0.993336 37.3458 1.25825 38.5967 1.77472C39.8477 2.29119 40.9846 3.0491 41.9426 4.00515C42.9005 4.96119 43.6607 6.09662 44.1796 7.34657C44.6986 8.59651 44.9662 9.93646 44.9671 11.2899V31.0822C44.9662 32.4356 44.6986 33.7755 44.1796 35.0254C43.6607 36.2754 42.9005 37.4108 41.9426 38.3669C40.9846 39.3229 39.8477 40.0808 38.5967 40.5973C37.3458 41.1138 36.0053 41.3787 34.6519 41.3769ZM27.1097 3.03908C24.922 3.04089 22.8244 3.91074 21.2775 5.45767C19.7306 7.0046 18.8607 9.10216 18.8589 11.2899V31.0822C18.8625 33.2693 19.733 35.3658 21.2795 36.9124C22.826 38.4589 24.9226 39.3293 27.1097 39.3329H34.6519C35.7369 39.3347 36.8116 39.1227 37.8145 38.7089C38.8175 38.2952 39.7291 37.6878 40.4973 36.9216C41.2654 36.1553 41.875 35.2452 42.2913 34.2433C42.7075 33.2413 42.9222 32.1671 42.9231 31.0822V11.3239C42.9267 10.2361 42.7153 9.15825 42.3011 8.15235C41.8868 7.14646 41.2779 6.23233 40.5094 5.46247C39.7408 4.69261 38.8276 4.08221 37.8224 3.66633C36.8172 3.25045 35.7397 3.03728 34.6519 3.03908H27.1097Z"></path>
    <path d="M30.8842 17.9664C30.6131 17.9664 30.3532 17.8587 30.1615 17.667C29.9699 17.4754 29.8622 17.2154 29.8622 16.9444V11.8141C29.8622 11.543 29.9699 11.2831 30.1615 11.0914C30.3532 10.8998 30.6131 10.7921 30.8842 10.7921C31.1552 10.7921 31.4152 10.8998 31.6068 11.0914C31.7985 11.2831 31.9062 11.543 31.9062 11.8141V16.9444C31.9062 17.2154 31.7985 17.4754 31.6068 17.667C31.4152 17.8587 31.1552 17.9664 30.8842 17.9664Z"></path>
  </symbol>
  <symbol xmlns="http://www.w3.org/2000/svg" viewBox="0 0 20 20" id="sc-twitter">
    <path fill-rule="evenodd" clip-rule="evenodd" d="M18.979 4.36286C18.9532 4.33216 18.9106 4.32174 18.8743 4.33848C18.3361 4.57947 17.77 4.75273 17.1869 4.85508C17.8059 4.38501 18.2672 3.73405 18.5037 2.98763C18.5151 2.9519 18.5033 2.91282 18.4744 2.88956C18.4453 2.8663 18.4049 2.86332 18.373 2.88249C17.6758 3.2999 16.9206 3.59411 16.1276 3.75731C15.4248 3.02113 14.4435 2.6 13.4278 2.6C11.3623 2.6 9.68211 4.29605 9.68211 6.38086C9.68211 6.63301 9.70626 6.88275 9.75419 7.12523C6.89336 6.94695 4.21836 5.56056 2.3995 3.30864C2.38088 3.28557 2.35268 3.27273 2.32318 3.27571C2.29387 3.27794 2.26769 3.29469 2.25294 3.32018C1.9211 3.89484 1.74578 4.55231 1.74578 5.22112C1.74578 6.3803 2.2675 7.46411 3.15591 8.17926C2.69853 8.12381 2.25183 7.97847 1.84902 7.75274C1.82192 7.73729 1.78818 7.73748 1.76108 7.7533C1.73398 7.76893 1.71683 7.79796 1.7161 7.82959L1.71573 7.87798C1.71573 9.54277 2.8025 11.0045 4.3487 11.4899C3.94145 11.5561 3.51891 11.5516 3.10356 11.4716C3.07295 11.4659 3.04088 11.4765 3.01986 11.5003C2.99903 11.5241 2.99202 11.5574 3.00161 11.5876C3.46526 13.0484 4.75354 14.0728 6.25309 14.2005C5.00224 15.1256 3.5237 15.6129 1.96147 15.6129C1.67369 15.6129 1.38389 15.5956 1.09998 15.562C1.05942 15.5573 1.01923 15.5817 1.00522 15.6209C0.991209 15.6606 1.00614 15.7049 1.04117 15.7274C2.73171 16.8218 4.68643 17.4 6.69425 17.4C13.2619 17.4 17.1865 12.0148 17.1865 6.80869C17.1865 6.66372 17.1837 6.5195 17.178 6.37565C17.8865 5.85254 18.4947 5.21219 18.9851 4.47098C19.007 4.43786 19.0046 4.39375 18.979 4.36286Z"></path>
  </symbol>
  <symbol xmlns="http://www.w3.org/2000/svg" viewBox="0 0 44 44" id="arrow-type-1">
    <path fill-rule="evenodd" clip-rule="evenodd" d="M32.6066 32.7647L23.0607 42.3107C22.4749 42.8964 21.5251 42.8964 20.9393 42.3107L11.3934 32.7647C10.8076 32.1789 10.8076 31.2292 11.3934 30.6434C11.9792 30.0576 12.9289 30.0576 13.5147 30.6434L20.5 37.6287L20.5 1.25L23.5 1.25L23.5 37.6287L30.4853 30.6434C31.0711 30.0576 32.0208 30.0576 32.6066 30.6434C33.1924 31.2292 33.1924 32.1789 32.6066 32.7647Z"></path>
  </symbol>
  <symbol xmlns="http://www.w3.org/2000/svg" viewBox="0 0 20 20" id="sc-facebook">
    <path fill-rule="evenodd" clip-rule="evenodd" d="M14.6234 1.00375L12.2249 1C9.5302 1 7.78878 2.73871 7.78878 5.42982V7.47227H5.37715C5.16875 7.47227 5 7.63668 5 7.83949V10.7988C5 11.0016 5.16895 11.1658 5.37715 11.1658H7.78878V18.633C7.78878 18.8358 7.95753 19 8.16593 19H11.3124C11.5208 19 11.6896 18.8356 11.6896 18.633V11.1658H14.5093C14.7177 11.1658 14.8865 11.0016 14.8865 10.7988L14.8876 7.83949C14.8876 7.74211 14.8478 7.64886 14.7772 7.57994C14.7066 7.51103 14.6103 7.47227 14.5103 7.47227H11.6896V5.74086C11.6896 4.90868 11.8933 4.48622 13.0073 4.48622L14.623 4.48566C14.8312 4.48566 15 4.32124 15 4.11863V1.37077C15 1.16835 14.8314 1.00412 14.6234 1.00375Z"></path>
  </symbol>
  <symbol xmlns="http://www.w3.org/2000/svg" viewBox="0 0 20 20" id="sc-instagram">
    <path fill-rule="evenodd" clip-rule="evenodd" d="M10 1.5C12.3085 1.5 12.5979 1.50978 13.5045 1.55115C14.4093 1.59242 15.0272 1.73612 15.5678 1.94626C16.1268 2.16345 16.6008 2.45409 17.0734 2.92663C17.5459 3.3992 17.8366 3.87323 18.0538 4.43218C18.2639 4.97284 18.4076 5.59073 18.4488 6.49546C18.4902 7.40208 18.5 7.69154 18.5 10C18.5 12.3085 18.4902 12.5979 18.4488 13.5045C18.4076 14.4093 18.2639 15.0272 18.0538 15.5678C17.8366 16.1268 17.5459 16.6008 17.0734 17.0734C16.6008 17.5459 16.1268 17.8366 15.5678 18.0538C15.0272 18.2639 14.4093 18.4076 13.5045 18.4488C12.5979 18.4902 12.3085 18.5 10 18.5C7.69154 18.5 7.40208 18.4902 6.49546 18.4488C5.59073 18.4076 4.97284 18.2639 4.43218 18.0538C3.87323 17.8366 3.3992 17.5459 2.92663 17.0734C2.45409 16.6008 2.16345 16.1268 1.94626 15.5678C1.73612 15.0272 1.59242 14.4093 1.55115 13.5045C1.50978 12.5979 1.5 12.3085 1.5 10C1.5 7.69154 1.50978 7.40208 1.55115 6.49546C1.59242 5.59073 1.73612 4.97284 1.94626 4.43218C2.16345 3.87323 2.45409 3.3992 2.92663 2.92663C3.3992 2.45409 3.87323 2.16345 4.43218 1.94626C4.97284 1.73612 5.59073 1.59242 6.49546 1.55115C7.40208 1.50978 7.69154 1.5 10 1.5ZM9.99734 12.8298C11.5616 12.8298 12.8298 11.5616 12.8298 9.99734C12.8298 8.433 11.5616 7.16488 9.99734 7.16488C8.433 7.16488 7.16488 8.433 7.16488 9.99734C7.16488 11.5616 8.433 12.8298 9.99734 12.8298ZM9.99734 5.63383C12.4072 5.63383 14.3608 7.58742 14.3608 9.99734C14.3608 12.4072 12.4072 14.3608 9.99734 14.3608C7.58742 14.3608 5.63383 12.4072 5.63383 9.99734C5.63383 7.58742 7.58742 5.63383 9.99734 5.63383ZM15.8556 5.37224C15.8556 5.94601 15.3904 6.41111 14.8166 6.41111C14.2429 6.41111 13.7778 5.94601 13.7778 5.37224C13.7778 4.79847 14.2429 4.33333 14.8166 4.33333C15.3904 4.33333 15.8556 4.79847 15.8556 5.37224Z"></path>
  </symbol>
</svg>